<mxfile host="app.diagrams.net" modified="2024-01-25T08:59:00.256Z" agent="Mozilla/5.0 (Macintosh; Intel Mac OS X 10_15_7) AppleWebKit/537.36 (KHTML, like Gecko) Chrome/120.0.0.0 Safari/537.36 Edg/120.0.0.0" version="23.0.1" etag="93mABu_7TMRPkwbWJzhD" type="github">
  <diagram name="第 1 页" id="FP17i37BO7KRD37dASpm">
    <mxGraphModel>
      <root>
        <mxCell id="0" />
        <mxCell id="1" parent="0" />
      </root>
    </mxGraphModel>
  </diagram>
</mxfile>
